<svg width="55" height="55" viewBox="0 0 55 55" fill="none" xmlns="http://www.w3.org/2000/svg">
<path d="M27.5 0C12.336 0 0 12.337 0 27.5C0 35.476 3.417 42.667 8.86 47.695L8.788 47.793L9.493 48.397C13.397 51.739 18.148 53.88 23.174 54.657C23.53 54.713 23.889 54.759 24.249 54.801C24.64 54.846 25.031 54.886 25.425 54.913C26.004 54.956 26.587 54.984 27.175 54.991C27.237 54.991 27.298 54.999 27.36 54.999C27.377 54.999 27.395 54.997 27.412 54.997C27.442 54.997 27.471 54.999 27.501 54.999C42.664 55 55 42.663 55 27.5C55 12.337 42.664 0 27.5 0ZM27.414 52.998C27.324 52.998 27.236 52.992 27.147 52.991C26.669 52.987 26.193 52.962 25.718 52.931C20.42 52.563 15.564 50.572 11.644 47.449C12.025 47.089 12.446 46.784 12.91 46.549L22.047 42.628C22.786 42.26 23.238 41.442 23.675 40.565C23.949 40.013 23.918 39.37 23.592 38.844C23.265 38.315 22.699 38 22.079 38L15.732 38.005C15.71 38.003 13.537 37.783 11.902 37.081C11.594 36.949 11.465 36.846 11.428 36.84C11.443 36.798 11.479 36.716 11.569 36.589C13.833 33.365 17.652 26.946 17.783 20.18C17.791 19.801 18.086 10.893 27.115 10.819C32.48 10.863 35.017 14.008 36.201 16.639C36.792 17.952 37.14 19.518 37.266 21.424C37.656 27.324 40.366 32.89 42.571 36.519C42.685 36.707 42.719 36.937 42.667 37.15C42.618 37.347 42.499 37.511 42.332 37.611C41.294 38.231 39.943 38.018 39.935 38.015L33.273 38C32.56 38 31.943 38.45 31.702 39.146C31.459 39.848 31.674 40.618 32.238 41.063C32.948 41.624 33.23 41.797 33.342 41.857L40.961 46.466C41.615 46.823 42.19 47.311 42.653 47.9C38.231 51.229 32.983 52.986 27.414 52.998ZM44.25 46.702C43.617 45.887 42.835 45.211 41.957 44.733L34.338 40.124C34.322 40.115 34.268 40.084 34.148 40H39.688C40.124 40.061 41.863 40.222 43.357 39.327C43.984 38.953 44.429 38.35 44.607 37.632C44.788 36.905 44.669 36.121 44.28 35.481C42.192 32.043 39.625 26.79 39.262 21.292C39.119 19.145 38.715 17.354 38.025 15.819C36.601 12.655 33.556 8.872 27.115 8.819C16.151 8.909 15.785 20.025 15.783 20.139C15.658 26.609 11.649 32.994 9.932 35.439C9.465 36.104 9.316 36.751 9.488 37.36C9.676 38.02 10.207 38.531 11.113 38.92C13.03 39.743 15.435 39.986 15.634 40.001H21.718C21.551 40.325 21.323 40.736 21.206 40.814L12.093 44.722L12.04 44.746C11.327 45.102 10.691 45.576 10.126 46.141C5.132 41.483 2 34.852 2 27.5C2 13.439 13.439 2 27.5 2C41.561 2 53 13.439 53 27.5C53 35.153 49.606 42.024 44.25 46.702Z" fill="black"/>
</svg>
