<svg width="61" height="61" viewBox="0 0 61 61" fill="none" xmlns="http://www.w3.org/2000/svg">
<g clip-path="url(#clip0_29_399)">
<path d="M59.8399 7.897C59.6219 7.629 59.2839 7.504 58.9469 7.544C58.8699 7.548 58.7979 7.561 58.7229 7.583L0.737947 23.354C0.311947 23.47 0.0119467 23.852 -5.33214e-05 24.293C-0.0110533 24.734 0.268947 25.131 0.687947 25.269L21.9049 32.221L20.0069 47.403C19.9569 47.803 20.1519 48.194 20.5009 48.394C20.6559 48.483 20.8279 48.527 20.9989 48.527C21.2139 48.527 21.4289 48.458 21.6069 48.321L29.3719 42.375L36.1789 52.1C36.3669 52.369 36.6729 52.527 36.9979 52.527C37.0199 52.527 37.0429 52.526 37.0659 52.525C37.4159 52.501 37.7269 52.296 37.8869 51.983L59.9499 8.983C60.1339 8.631 60.0899 8.205 59.8399 7.897ZM52.8949 11.241L22.8609 30.429L4.48395 24.408L52.8949 11.241ZM22.2879 45.281L23.6699 34.228L28.2249 40.735L22.2879 45.281ZM36.8679 49.594L24.4179 31.808L56.5179 11.3L36.8679 49.594Z" fill="black"/>
</g>
<defs>
<clipPath id="clip0_29_399">
<rect width="60.064" height="60.064" fill="white"/>
</clipPath>
</defs>
</svg>
