<svg width="50" height="50" viewBox="0 0 50 50" fill="none" xmlns="http://www.w3.org/2000/svg">
<path d="M49.57 22.815L42.1331 15.9094V4.59608H33.5664V7.95511L24.9996 0L0.430063 22.815C0.0839647 23.1372 0.0634045 23.6794 0.385515 24.0264C0.70677 24.3725 1.24905 24.3922 1.59686 24.0709L4.44017 21.4307V50H18.147H31.8539H45.5607V21.4298L48.404 24.0701C48.5685 24.2234 48.7784 24.2988 48.9874 24.2988C49.2179 24.2988 49.4466 24.2071 49.6145 24.0255C49.9366 23.6794 49.9161 23.1372 49.57 22.815ZM35.2797 6.30943H40.4198V14.3185L35.2797 9.54596V6.30943ZM19.8595 48.2866V30.2424C19.8595 29.7995 20.2193 29.4397 20.6622 29.4397H29.3369C29.7798 29.4397 30.1396 29.7995 30.1396 30.2424V48.2866H19.8595ZM43.8465 48.2866H31.853V30.2424C31.853 28.8546 30.7248 27.7264 29.3369 27.7264H20.6622C19.2744 27.7264 18.1462 28.8546 18.1462 30.2424V48.2866H6.15267V19.8389L24.9996 2.33787L37.2329 13.6974L42.1331 18.2472L43.8465 19.8381V48.2866Z" fill="black"/>
</svg>
