<svg width="512" height="691" viewBox="0 0 512 691" fill="none" xmlns="http://www.w3.org/2000/svg">
<rect x="274.028" y="413.789" width="103.211" height="127.112" fill="#FFCB6C"/>
<path fill-rule="evenodd" clip-rule="evenodd" d="M243.924 289.46C255.05 280.987 282.981 277.177 294.856 285.335C306.584 293.527 307.862 306.776 313.328 318.963C318.484 316.531 327 320.014 328.495 324.799C330.349 327.056 330.432 333.397 331.711 336.431C387.347 345.288 395.793 388.667 402.49 437.915C411.349 487.889 431.46 537.755 422.729 589.179C423.867 590.825 424.763 592.425 425.593 594.326C427.58 597.707 425.02 602.494 421.012 602.308C415.824 601.853 410.688 601.231 405.475 601.036C391.026 600.534 376.563 600.594 362.108 600.778L360.137 600.804C287.288 601.711 214.444 603.498 141.592 603.972C138.949 603.976 137.655 601.605 138.008 599.267C138.719 594.559 139.378 589.848 140.066 585.138C122.835 589.69 104.517 590.835 87.3339 585.617C86.1318 584.392 90.1345 585.056 90.7696 584.87C74.9562 574.063 79.6786 551.297 81.0794 534.9C89.7897 478.713 92.8604 416.547 126.514 368.602C141.073 349.035 162.418 333.544 186.945 330.058L187.625 329.965C194.797 329.009 202.79 328.701 209.06 324.799C216.112 319.169 219.118 308.765 226.537 308.668C228.987 308.635 232.319 311.735 235.906 313.84C236.174 309.21 238.668 305.303 239.219 301.714L239.264 301.407C239.838 297.222 239.051 293.457 243.924 289.46ZM363.491 439.4C347.856 428.537 307.467 433.995 306.542 434.603C304.506 435.942 303.63 436.061 302.528 437.8C301.441 437.944 300.355 438.094 299.27 438.248C297.092 438.959 298.706 441.638 301.221 440.682C299.708 447.206 304.16 451.846 305.932 458.296C306.508 460.39 305.953 464.157 305.932 466.297C306.104 469.025 309.12 472.248 308.618 474.985C306.83 484.716 297.132 494.209 301.221 503.646C303.93 508.977 312.077 511.694 317.493 513.507C328.715 517.814 348.269 513.344 354.789 503.646C358.267 498.474 362.296 485.426 364.37 481.378L364.829 474.958C365.963 458.998 366.971 441.818 363.491 439.4Z" fill="#FFCBB4"/>
<path fill-rule="evenodd" clip-rule="evenodd" d="M225.958 308.696L230.433 311.442L256.42 324.29C261.458 325.7 263.977 327.391 263.977 329.362V349.429C263.977 352.114 268.704 358.2 278.16 367.687L286.895 358.978L286.7 357.838C285.868 352.924 285.453 349.638 285.453 347.978C285.453 346.192 293.999 339.415 311.091 327.646L318.569 320.605L317.772 318.18C322.382 318.398 327.382 321.238 328.495 324.799C330.349 327.056 330.432 333.397 331.711 336.431C387.347 345.287 395.793 388.667 402.49 437.915C411.349 487.889 431.46 537.754 422.729 589.179C423.867 590.825 424.763 592.425 425.593 594.325C427.58 597.707 425.02 602.493 421.012 602.308C415.824 601.852 410.688 601.23 405.475 601.036C391.026 600.534 376.563 600.594 362.108 600.778L360.137 600.803C287.288 601.71 214.444 603.498 141.592 603.972C138.949 603.975 137.655 601.605 138.008 599.266C138.719 594.558 139.378 589.848 140.066 585.138C122.835 589.689 104.517 590.835 87.3339 585.616C86.1318 584.392 90.1345 585.056 90.7696 584.869C74.9562 574.063 79.6786 551.297 81.0794 534.899C89.7897 478.713 92.8604 416.546 126.514 368.601C141.073 349.035 162.418 333.544 186.945 330.058L187.625 329.965L188.311 329.876C195.303 328.985 202.989 328.577 209.06 324.799C215.926 319.317 218.956 309.311 225.958 308.696ZM288.226 426.48C285.678 426.48 280.458 430.438 272.566 438.355L271.871 438.677C262.332 443.108 256.013 446.952 252.913 450.209L252.802 450.326C249.671 453.686 243.47 462.62 234.2 477.127L220.775 485.067H215.695L212.078 511.303L220.775 530.036L240.472 523.4L272.566 514.94L290.983 496.254L301.372 492.766C300.112 496.408 299.655 500.031 301.221 503.646C303.93 508.976 312.077 511.694 317.493 513.506C328.715 517.814 348.269 513.344 354.789 503.646C358.267 498.473 362.296 485.425 364.37 481.378L364.965 473.038C366.036 457.647 366.832 441.721 363.491 439.399C347.856 428.537 307.467 433.995 306.542 434.603C304.506 435.942 303.63 436.061 302.528 437.8L301.959 437.876L305.164 433.528L304.029 432.922C295.931 428.627 290.663 426.48 288.226 426.48ZM301.221 440.682C299.773 446.928 303.791 451.447 305.692 457.48L300.836 448.184L300.836 440.802C300.961 440.771 301.09 440.731 301.221 440.682Z" fill="#00918C"/>
<path fill-rule="evenodd" clip-rule="evenodd" d="M223.813 307.726C224.892 306.77 226.489 307.972 225.803 309.263C224.262 312.165 222.681 314.915 220.612 317.481C219.358 319.037 218.014 320.508 216.653 321.963C220.147 324.986 223.144 328.739 225.974 332.257C229.593 336.756 233.014 341.446 237.076 345.562C241.082 349.622 245.512 352.46 250.868 354.353L251.95 354.729C257.33 356.618 263.081 359.169 266.114 364.264C266.712 365.269 265.508 366.51 264.496 365.883C259.225 362.62 253.033 361.963 247.297 359.807C241.755 357.724 236.925 354.518 232.656 350.427C228.395 346.342 224.818 341.695 221.086 337.146C217.396 332.648 213.422 328.806 209.057 325C202.321 329.533 194.632 331.505 186.814 333.441L185.96 333.653C178.133 335.591 170.347 337.842 163.003 341.217C156.528 344.193 150.16 347.746 144.885 352.588C139.287 357.726 134.929 364.289 130.941 370.707C122.02 385.067 115.748 400.798 110.226 416.72C104.483 433.281 99.6798 450.175 95.8019 467.269C93.8296 475.963 92.2278 484.72 90.9113 493.538C90.2776 497.785 89.7147 502.041 89.2203 506.307C88.6925 510.861 88.5713 515.547 87.1741 519.927C86.5751 521.804 85.1608 522.583 83.7451 522.517L83.4576 526.113C83.0763 530.908 82.7208 535.705 82.6008 540.529C82.4016 548.552 82.4919 556.551 83.0689 564.557L83.1506 565.648C83.604 571.491 84.6172 578.056 89.0102 582.334C93.5597 586.765 100.556 588.158 106.688 588.238C120.969 588.424 134.717 581.675 147.354 575.755C160.37 569.657 173.03 562.889 185.386 555.549C191.679 551.811 197.904 547.949 204.049 543.974C207.065 542.022 210.059 540.038 213.031 538.022C214.733 536.867 216.346 535.601 218.079 534.576C217.23 533.786 216.851 532.543 217.562 531.457C212.553 527.108 210.468 519.348 210.224 513.068C210.027 508 210.773 502.945 211.362 497.924C211.659 495.393 212.025 492.865 212.406 490.345C212.557 489.349 212.672 488.284 212.848 487.233C199.321 494.667 185.415 501.288 171.14 507.169C163.824 510.184 156.413 512.895 148.9 515.379L147.378 515.88C140.259 518.211 132.97 520.412 125.611 521.744C125.218 521.816 124.898 521.235 125.319 521.049C132.49 517.885 139.91 515.215 147.189 512.301L148.386 511.813V511.813C148.248 511.806 148.106 511.787 147.957 511.751C143.688 510.721 139.452 509.133 135.265 507.796C131.379 506.555 127.013 505.776 123.381 503.902C123.102 503.758 123.258 503.37 123.53 503.351C127.613 503.068 132.044 504.258 136.047 504.958L137.551 505.221C140.07 505.666 142.645 506.143 145.151 506.766C145.242 505.926 145.711 505.083 146.379 504.588C153.724 499.148 152.978 488.161 153.763 480.059L154.346 474.043C155.371 463.516 156.455 452.99 158.101 442.541C158.189 441.983 159.052 442.143 159.056 442.67C159.141 455.622 158.163 468.515 157.673 481.447L157.597 483.568C157.326 491.548 157.114 499.834 152.089 505.974C152.792 505.563 153.742 505.563 154.311 506.24C155.01 507.072 155.414 508.007 155.402 508.925C159.943 507.021 164.464 505.067 168.962 503.074C183.427 496.665 197.588 489.493 211.375 481.733C212.858 480.898 214.269 481.554 215.002 482.655L215.108 482.64C215.126 482.638 215.144 482.636 215.162 482.635L215.267 482.631C215.271 482.631 215.275 482.631 215.279 482.631C217.22 481.565 219.864 482.324 221.529 483.88C221.578 483.927 221.62 483.977 221.664 484.027C223.772 483.08 225.741 481.802 227.527 480.183C231.184 476.869 234.28 472.771 236.98 468.662C241.952 461.094 246.175 452.678 252.891 446.448C258.347 441.387 265.113 438.236 272.21 436.257C272.18 436.05 272.259 435.829 272.403 435.682C272.767 435.309 273.027 435.179 273.498 435.406C273.536 435.424 273.558 435.45 273.574 435.477L274.266 434.293C274.644 433.651 275.032 433.004 275.167 432.834C275.973 431.82 276.802 430.813 277.644 429.827C279.071 428.158 280.698 426.511 282.581 425.353C286.705 422.82 291.041 424.253 295.28 425.638C297.842 426.475 300.395 427.339 302.953 428.189L303.217 428.275C305.123 428.888 307.355 429.424 308.208 431.444C308.545 432.244 308.597 433.074 308.44 433.879C326.551 429.273 346.667 431.389 364.34 436.796C365.019 437.003 365.696 437.561 365.839 438.294C367.864 448.68 368.766 459.331 367.85 469.894C367.059 479.011 365.039 487.947 361.232 496.294L361.016 496.765C357.439 504.501 351.769 514.038 343.109 516.462C337.881 517.927 332.098 517.063 326.765 516.795C321.582 516.534 316.285 516.496 311.151 515.681C306.579 514.956 302.573 512.906 299.748 509.188C297.31 505.981 296.027 502.104 294.975 498.248C294.494 498.401 294.016 498.564 293.545 498.748C291.559 499.524 289.876 500.776 288.354 502.25C285.141 505.362 282.649 509.141 279.287 512.111C276.244 514.799 272.776 516.89 269.057 518.497C261.349 521.828 253.081 523.159 244.928 524.924L244.359 525.048C238.221 526.395 231.957 528.049 226.539 531.244C226.433 532.185 226.005 533.07 225.318 533.65C226.273 534.547 226.678 535.969 225.838 537.302C223.493 541.025 219.453 543.143 215.826 545.523L215.59 545.679C212.022 548.044 208.423 550.363 204.795 552.634C197.419 557.253 189.89 561.617 182.253 565.789C169.971 572.499 157.425 578.829 144.652 584.571C145.419 588.343 145.139 592.232 145.715 596.03L145.803 596.572C146.05 597.981 145.717 599.16 144.747 600.081L144.644 600.175L144.646 600.162L144.555 600.246L144.524 600.271L144.534 600.263C144.422 600.366 144.307 600.461 144.189 600.543L144.039 600.639V600.639C143.105 601.207 141.901 601.201 140.944 600.699L140.834 600.639L140.651 600.534C139.386 599.806 138.514 598.004 139.038 596.572C140.328 593.052 140.815 589.296 142.006 585.753L141.061 586.175V586.175L139.816 586.718C126.35 592.542 111.392 597.446 96.7195 593.476C90.2366 591.721 84.1773 588.01 80.9336 581.96C77.7417 576.007 77.2906 569.096 77.1211 562.474C76.912 554.302 77.3501 546.004 78.4277 537.902C79.1511 532.463 80.0259 526.922 81.3753 521.539C80.6812 520.927 80.171 520.048 80.0363 518.96C79.3994 513.819 80.514 508.475 81.1964 503.361C81.863 498.367 82.5994 493.384 83.4323 488.415C85.1139 478.382 87.0677 468.37 89.3424 458.455C93.3906 440.807 98.7364 423.474 105.172 406.554L105.736 405.08C111.683 389.616 118.569 374.481 128.158 360.895C132.745 354.395 137.593 348.502 144.075 343.818C150.146 339.43 156.995 336.27 164.063 333.855C171.139 331.438 178.411 329.819 185.813 328.811C193.329 327.788 201.263 327.16 208.274 324.077C207.387 322.487 208.148 320.34 209.641 319.354C214.665 316.035 219.31 311.716 223.813 307.726ZM384.627 452.066C384.837 451.747 385.337 451.949 385.244 452.327C382.801 462.337 380.508 472.368 379.01 482.57C376.306 500.983 376.804 519.637 377.025 538.186L377.036 539.145C377.149 549.137 377.307 559.129 377.638 569.116C377.804 574.164 378.134 579.261 377.955 584.311C377.857 587.05 377.127 589.642 376.868 592.349C376.641 594.716 376.843 597.119 376.956 599.489C377.032 601.065 374.707 600.998 374.548 599.489L374.346 597.538C374.083 595.068 373.759 592.614 372.949 590.25C371.976 587.407 371.509 584.615 371.172 581.63C370.655 577.056 370.425 572.437 370.225 567.831L370.089 564.645C369.255 545.396 369.285 526.056 370.634 506.828L370.732 505.454C372.068 487.278 374.386 467.64 384.627 452.066ZM332.545 337.51C331.907 337.247 332.131 336.282 332.838 336.45L334.123 336.757C343.54 339.013 352.786 341.457 361.576 345.655C370.372 349.855 377.818 356.125 383.735 363.836C395.237 378.823 400.017 397.038 403.79 415.236C407.983 435.457 411.801 455.752 416.031 475.967L416.817 479.732C420.731 498.56 424.426 517.398 427.149 536.449L427.344 537.831C430.09 557.421 431.742 577.69 428.746 597.331C428.153 601.217 421.687 600.249 421.94 596.41C422.67 585.311 423.193 574.271 422.688 563.147C422.182 552.021 421.139 540.944 419.583 529.915C418.274 520.634 416.323 511.469 414.596 502.261L414.326 500.807C412.88 492.976 411.389 485.153 409.902 477.329L407.68 465.615C404.348 448.075 400.952 430.519 397.114 413.09L396.887 412.064C393.131 395.295 387.594 377.73 376.329 364.413C364.897 350.9 348.531 344.094 332.545 337.51ZM291.005 515.374C291.28 514.762 292.242 514.829 292.538 515.374C293.696 517.512 293.825 520.241 294.044 522.654L294.067 522.902C294.346 525.847 294.592 528.802 294.743 531.756C295.029 537.363 295.166 542.963 295.149 548.577C295.131 554.33 295.015 560.077 294.705 565.822L294.621 567.361C294.338 572.353 293.863 577.922 291.491 582.286C290.629 583.873 288.284 583.407 287.784 581.802C286.148 576.548 286.988 570.319 287.408 564.938L287.734 560.739C288.056 556.54 288.364 552.339 288.608 548.135C288.943 542.383 289.218 536.626 289.484 530.871C289.57 529.002 289.663 527.132 289.762 525.263L289.913 522.46C290.043 520.115 290.032 517.542 291.005 515.374ZM107.051 522.821L107.776 522.121C109.999 519.945 112.809 516.594 116.095 516.802C117.406 516.884 118.241 517.973 117.969 519.262C117.389 522.019 114.577 523.45 112.553 525.133C110.335 526.976 108.246 528.946 106.16 530.935C104.309 532.699 102.53 534.513 100.793 536.383L100.143 537.088C99.5206 537.767 95.087 541.778 95.5664 542.818L95.5925 542.865C95.7259 543.064 95.5037 543.338 95.2824 543.268C93.3678 542.663 93.4872 541.022 94.2111 539.359C95.6019 536.164 98.0375 533.209 100.164 530.48C102.286 527.759 104.581 525.224 107.051 522.821V522.821ZM297.943 442.699C296.463 439.199 291.009 439.272 287.912 439.482C280.115 440.008 271.679 441.981 264.741 445.626C257.549 449.405 252.704 455.459 248.368 462.154L248.166 462.468C243.94 469.037 239.871 476.813 233.255 481.33C229.885 483.631 225.95 485.732 221.861 486.642C221.58 487.135 221.125 487.526 220.529 487.668L220.252 487.732C219.087 487.989 217.278 488.273 215.715 488.103C215.726 488.868 215.718 489.626 215.737 490.351C215.792 492.426 215.815 494.511 215.815 496.588C215.816 500.94 215.582 505.301 215.764 509.652C215.925 513.501 216.469 517.523 218.316 520.963C219.672 523.487 221.461 525.158 223.62 526.753C228.932 523.515 234.938 521.542 241.035 520.058C248.407 518.263 255.956 517.066 263.161 514.632C266.629 513.461 269.963 511.928 272.983 509.846C276.189 507.635 278.638 504.644 281.157 501.718L281.551 501.263C284.122 498.314 286.928 495.492 290.562 493.893C293.691 492.516 297.815 492.271 300.551 490.14C301.982 489.024 302.102 487.406 302.252 485.749C300.5 486 298.645 485.598 296.898 485.394L295.994 485.287C294.342 485.091 292.729 484.875 291.103 484.455C290.801 484.377 290.801 483.922 291.103 483.844C293.024 483.348 294.928 483.136 296.898 482.905L297.361 482.848C299.143 482.614 301.017 482.261 302.765 482.654C303.079 481.46 303.532 480.32 304.167 479.179C305.059 477.576 306.747 475.758 306.975 473.885C307.043 473.326 306.913 472.666 306.649 472.172L306.558 472.003C306.447 471.804 306.316 471.604 306.124 471.48C306.103 471.505 306.058 471.533 305.96 471.564C304.615 471.987 303.441 471.329 302.818 470.314C300.174 470.642 297.288 470.531 294.808 470.641L292.301 470.762C289.622 470.885 286.821 470.939 284.304 470.398C283.952 470.322 283.846 469.737 284.198 469.587C287.293 468.263 291.047 467.84 294.361 467.332C296.211 467.048 298.075 466.831 299.931 466.581C301.167 466.414 302.479 466.139 303.759 466.073C306.969 462.076 305.24 455.771 300.772 454.05C299.144 454.765 297.681 454.349 295.903 454.196C294.128 454.044 292.349 453.941 290.567 453.948C286.996 453.964 283.212 454.904 279.675 454.499C279.1 454.433 278.566 453.668 279.138 453.201C281.845 450.991 285.724 450.271 289.16 449.8L289.872 449.705C291.024 449.554 292.425 449.334 293.878 449.202C294.206 448.561 294.796 448.077 295.682 447.957C295.945 447.92 296.209 447.899 296.473 447.877L296.469 447.851V447.851C298.629 447.747 298.535 444.099 297.943 442.699ZM150.081 510.953C150.043 511.012 150.001 511.068 149.957 511.122L149.888 511.202L150.243 511.058L150.081 510.953V510.953ZM335.632 434.878C326.541 433.902 317.438 434.108 308.32 434.37C307.591 436.755 305.052 438.788 302.593 438.865C304.519 441.797 304.718 445.765 303.367 448.875C306.235 450.017 308.706 452.068 310.205 454.989C312.285 459.038 312.013 463.543 309.958 467.286C311.712 468.874 312.747 471.454 312.644 473.885C312.528 476.596 310.912 478.912 309.57 481.157C308.119 483.585 308.07 485.722 307.624 488.441C306.972 492.42 304.289 494.834 300.836 496.341L301.019 497.063C301.91 500.528 303.017 504.185 305.561 506.719C308.834 509.979 313.912 509.949 318.236 510.155L318.445 510.165C322.405 510.363 326.363 510.595 330.321 510.82L333.29 510.986C337.847 511.236 342.224 511.267 345.945 508.253C352.019 503.335 356.183 495.195 358.818 487.989C364.35 472.863 364.417 456.264 361.877 440.512C353.361 437.766 344.525 435.834 335.632 434.878ZM260.031 459.973L260.098 459.977C261.97 460.191 263.256 461.707 263.714 463.505C264.379 466.118 264.053 468.481 265.653 470.84C267.3 473.266 268.312 475.209 268.551 478.206C268.649 479.439 268.604 480.669 268.879 481.876L269.078 482.722C269.289 483.624 269.462 484.492 269.357 485.46C269.261 486.343 268.831 487.031 267.945 487.314C265.06 488.237 262.831 486.111 262.086 483.421C261.442 481.098 262.302 478.33 261.393 476.148C260.89 474.939 259.961 473.927 259.437 472.71C258.917 471.503 258.656 470.242 258.573 468.931C258.414 466.45 260.608 463.469 259.384 461.221C259.124 460.741 259.419 459.958 260.031 459.973ZM221.698 434.371C223.652 433.974 225.869 433.063 227.796 433.82C228.787 434.209 229.276 435.417 228.439 436.257C226.986 437.714 224.874 437.795 222.917 438.139L222.745 438.17C220.43 438.598 218.112 439.004 215.79 439.389C211.423 440.112 207.044 440.752 202.651 441.296C198.139 441.854 193.614 442.351 189.082 442.725L187.328 442.869C183.5 443.175 179.517 443.406 175.762 442.82C175.216 442.735 175.304 441.94 175.762 441.801C179.876 440.555 184.389 440.221 188.643 439.694C193.166 439.133 197.68 438.541 202.183 437.837C206.679 437.135 211.169 436.381 215.642 435.548C217.664 435.173 219.683 434.78 221.698 434.371ZM292.213 430.372C290.498 429.765 288.611 428.865 286.753 429.166C283.548 429.685 280.696 432.808 278.16 434.864L279.433 434.616C285.95 433.364 294.58 432.014 300.051 436.158C300.065 436.134 300.075 436.11 300.091 436.087C300.533 435.416 301.044 434.892 301.603 434.319C301.656 434.268 301.708 434.216 301.759 434.164L302.06 433.843L301.371 433.604C299.895 433.082 298.146 432.408 297.87 432.31L297.851 432.303C295.969 431.666 294.085 431.036 292.213 430.372ZM238.668 293.761C238.4 290.312 243.768 290.34 244.034 293.761C244.614 301.23 242.934 308.628 239.316 315.176C239.29 315.224 239.26 315.266 239.232 315.311C241.495 316.489 243.783 317.618 246.122 318.628C249.114 319.92 252.163 321.096 255.266 322.094C258.073 322.998 261.531 323.354 263.891 325.234C268.868 329.197 266.998 337.421 266.041 342.752L265.891 343.594C265.415 346.337 265.07 349.152 266.226 351.784C267.461 354.597 269.959 356.683 272.186 358.695L272.636 359.103C274.61 360.901 276.865 363.086 278.313 365.524C279.634 362.791 281.436 360.558 283.341 358.044C284.699 356.25 283.732 355.659 282.756 353.907C281.816 352.22 281.357 350.422 281.651 348.498C282.193 344.944 285.033 342.377 287.86 340.448C291.199 338.171 294.925 336.485 298.376 334.366C305.467 330.015 312.373 325.04 318.595 319.514C318.767 319.361 319.064 319.561 318.927 319.77C314.012 327.246 308.249 333.707 301.166 339.191C298.294 341.414 295.277 343.259 292.24 345.198L291.367 345.758C290.147 346.548 288.626 347.604 288.075 348.949C287.52 350.302 288.703 351.323 289.34 352.444C291.362 356.002 290.386 359.322 287.989 362.34L287.877 362.479C285.495 365.416 283.689 368.146 282.826 371.897C280.97 379.955 283.555 388.349 286.26 395.913L286.367 396.212C287.83 400.289 289.386 404.337 290.657 408.48L291.007 409.625C292.159 413.437 293.102 417.197 291.81 421.115C291.371 422.448 289.553 422.763 288.798 421.509C286.135 417.085 285.471 411.762 283.802 406.898C282.175 402.158 280.306 397.504 278.735 392.744C276.711 386.616 275.357 380.02 276.092 373.592C276.07 373.555 276.046 373.52 276.028 373.48L275.513 372.353C274.108 369.302 272.752 366.637 270.197 364.204C267.533 361.667 264.64 359.421 262.544 356.35C257.989 349.678 260.806 342.256 261.356 334.961L261.419 334.067C261.519 332.552 261.574 330.494 260.584 329.446C259.472 328.266 256.862 327.964 255.386 327.442C251.57 326.092 247.81 324.518 244.228 322.629C240.819 320.83 237.517 318.843 234.442 316.515L232.884 315.343C230.425 313.487 227.875 311.461 226.227 308.936C226.037 308.645 226.36 308.176 226.705 308.315C229.456 309.431 231.969 311.207 234.543 312.753C234.583 312.658 234.63 312.563 234.682 312.468C237.867 306.704 239.177 300.317 238.668 293.761ZM326.548 333.254C327.644 330.248 332.64 330.48 332.44 334.052C332.288 336.795 331.123 339.272 330.058 341.764L329.944 342.031C328.844 344.627 327.574 347.064 326.054 349.443C323.151 353.991 319.749 358.212 316.116 362.195C312.822 365.806 308.499 368.015 303.517 367.648C301.418 367.493 299.3 366.959 297.46 365.911C295.276 364.665 292.903 360.924 290.116 361.83C289.847 361.917 289.595 361.522 289.828 361.335C293.046 358.744 296.698 362.762 299.778 363.73C304.42 365.188 309.184 363.576 312.171 359.823C315.291 355.905 318.162 351.518 320.783 347.251C322.115 345.085 323.329 342.837 324.379 340.519C325.437 338.18 325.678 335.639 326.548 333.254ZM319.066 314.754C318.93 314.339 319.446 313.944 319.811 314.181C321.925 315.558 323.757 317.376 325.707 318.971C327.871 320.739 330.051 322.472 332.264 324.178C335.491 326.666 331.748 331.245 328.908 328.528C325.021 324.811 320.764 319.95 319.066 314.754ZM307.458 300.204C308.317 296.891 313.397 298.257 312.656 301.531L312.632 301.631C311.23 307.038 313.227 312.544 317.49 316.049L317.647 316.177C320.344 318.335 316.523 322.109 313.853 319.971C308.023 315.305 305.598 307.378 307.458 300.204Z" fill="black"/>
<path fill-rule="evenodd" clip-rule="evenodd" d="M361.911 202.861C360.206 174.824 351.128 143.037 324.411 129.271C265.512 105.58 188.072 165.24 183.972 226.186C182.542 247.049 194.1 269.846 215.221 275.646C219.917 281.881 227.018 285.689 234.028 288.994C317.514 332.404 371.443 297.116 361.911 202.861V202.861Z" fill="#FFCAB4"/>
<path fill-rule="evenodd" clip-rule="evenodd" d="M380.93 185.421C377.98 177.208 374.863 169.058 371.584 160.972C368.391 153.102 365.507 145.062 361.541 137.564C337.857 92.787 294.789 92.787 272.526 98.6377C260.981 93.6524 239.356 95.0586 227.335 99.5572C207.873 106.84 184.149 135.489 176.038 148.36C158.129 176.78 146.953 214.605 158.849 247.445C160.403 251.737 162.386 255.712 164.619 259.543C163.213 261.454 161.594 263.263 159.801 265.041C154.472 270.324 149.143 275.434 144.54 281.393C139.966 287.316 136.173 293.614 133.35 300.558C128.027 313.653 127.771 328.481 134.808 340.976C140.931 351.848 151.778 359.944 163.998 360.716C164.626 360.803 165.254 360.884 165.885 360.947C167.504 363.62 169.479 366.081 171.732 368.227C178.636 374.808 195.092 378.184 204.478 378.4C204.96 378.788 205.445 379.176 205.931 379.559C211.674 384.089 217.701 388.659 224.295 391.882C228.761 394.068 234.616 395.894 239.276 394.316C241.39 395.732 244.857 395.434 246.953 394.276C250.398 392.374 253.2 388.948 254.905 385.441C259.038 376.926 258.044 367.609 256.983 358.513C255.813 348.466 254.689 338.414 253.546 328.367C252.651 320.51 251.716 312.523 249.332 304.955C248.1 301.034 246.485 297.265 244.398 293.722C244.452 293.425 244.443 293.127 244.358 292.848C243.674 290.621 242.262 289.454 240.589 287.939C240.373 287.745 240.157 287.547 239.946 287.344C239.109 286.389 238.214 285.501 237.256 284.748C236.888 284.374 236.523 283.995 236.159 283.617C233.132 280.439 230.272 277.099 227.731 273.52C225.266 270.049 223.04 266.425 220.921 262.733C218.767 258.979 217.341 254.836 215.192 251.108C215.007 250.788 214.539 250.725 214.279 250.991C213.613 251.681 213.186 252.447 213.267 253.254L212.934 253.304C212.808 252.087 211.688 251.095 210.168 251.361C207.892 251.758 206.021 251.906 204.051 251.149C204.397 248.846 204.717 246.538 205.032 244.226C205.607 239.97 206.142 235.702 206.601 231.433C207.712 231.699 208.814 232.082 209.893 232.569C211.432 233.259 212.884 234.187 214.126 235.328C215.349 236.455 216.194 237.974 217.688 238.758C219.406 239.655 221.479 238.172 220.975 236.225C219.954 232.29 214.175 230.036 210.6 229.292C209.372 229.035 208.117 228.927 206.862 228.954C207.145 226.214 207.397 223.473 207.604 220.728C207.703 219.43 207.793 218.132 207.879 216.829C210.658 215.986 213.635 215.734 216.527 216.13C217.481 216.892 218.434 217.645 219.356 218.407C222.284 220.832 225.199 223.27 228.077 225.754C228.338 225.975 228.594 226.196 228.855 226.421C230.564 227.895 232.696 226.434 232.408 224.347C230.06 207.246 240.513 193.642 252.75 183.104C266.297 171.434 290.925 170.075 307.036 149.861C314.455 151.374 331.021 155.869 337.857 166.787C347.428 182.085 346.178 195.792 346.906 213.146C347.635 230.514 349.488 248.629 345.553 265.753C341.923 281.543 332.096 295.034 316.849 301.236C316.471 301.39 316.089 301.538 315.707 301.683C307.823 304.662 299.219 305.505 290.925 303.936C281.746 302.196 274.082 297.986 266.445 292.807C266.005 292.514 265.361 293.118 265.694 293.56C275.76 306.929 295.531 311.396 311.214 307.867C311.947 307.7 312.676 307.52 313.4 307.322C309.892 317.432 310.598 328.529 315.167 338.374C317.915 344.297 322.107 349.422 327.212 353.465C332.838 357.918 339.818 361.515 343.722 367.767C347.298 373.496 346.236 379.933 340.115 383.241C338.572 384.08 337.979 386.789 339.508 387.979C340.093 388.43 340.677 388.889 341.275 389.34C344.702 391.932 354.116 396.8 355.64 396.98C369.178 398.589 378.281 388.628 384.114 376.877C390.964 363.084 389.183 346.275 381.636 333.14C375.583 322.602 363.66 312.217 368.4 298.879C370.091 294.115 373.55 290.053 376.909 286.384C380.741 282.206 384.861 278.293 388.535 273.966C392.187 269.67 395.426 264.996 397.234 259.605C399.874 251.726 398.56 243.207 396.577 235.341C392.327 218.456 386.808 201.796 380.93 185.421Z" fill="#632D0D"/>
<path fill-rule="evenodd" clip-rule="evenodd" d="M316.413 273.226C313.093 274.188 309.529 274.274 306.145 273.281C303.075 272.38 299.923 270.397 297.664 267.774C295.657 265.443 294.357 262.611 294.408 259.587C294.414 259.242 294.538 258.954 294.728 258.73C294.932 258.489 295.218 258.324 295.523 258.252C295.838 258.178 296.171 258.205 296.454 258.333C296.71 258.45 296.93 258.647 297.067 258.937C297.414 259.393 297.76 259.842 298.107 260.279C300.899 263.727 303.602 266.303 307.8 267.227C310.078 267.728 312.353 267.506 314.44 266.741C316.674 265.922 318.694 264.482 320.276 262.639C320.992 261.806 321.836 261.466 322.662 261.461C323.597 261.454 324.522 261.889 325.219 262.584C325.904 263.267 326.362 264.196 326.404 265.167C326.44 266.019 326.162 266.909 325.423 267.704C322.987 270.32 319.829 272.237 316.413 273.226ZM316.311 230.048C319.714 232.117 324.9 236.941 321.239 242.071C316.929 246.593 310.724 241.408 307.666 239.063C304.831 237.245 301.645 241.92 304.276 244.042C326.371 260.402 335.338 230.589 318.032 227.615C316.127 227.288 315.419 229.408 316.311 230.048ZM284.473 220.944C283.379 220.245 282.093 220.004 280.666 220.653C279.552 221.16 277.597 222.85 276.237 225.071C275.306 226.591 274.647 228.373 274.784 230.23C274.816 230.661 274.657 230.979 274.405 231.214C274.207 231.4 273.92 231.536 273.583 231.579C273.297 231.615 272.977 231.583 272.717 231.501C272.222 231.347 271.96 231.026 271.862 230.764C270.909 228.234 271.319 225.411 272.387 222.864C273.827 219.427 276.444 216.548 278.158 215.62C281.091 214.031 284.551 213.958 287.488 215.577C289.988 216.955 291.552 219.179 293.107 221.446C293.437 221.928 293.765 222.406 294.104 222.876C294.784 223.818 294.851 224.752 294.588 225.553C294.297 226.441 293.553 227.19 292.624 227.581C291.765 227.944 290.768 227.995 289.885 227.622C289.14 227.308 288.456 226.695 288.023 225.655C287.294 223.904 286.08 221.972 284.473 220.944V220.944ZM340.03 224.841C339.28 225.231 338.694 225.349 337.863 225.1C337.404 224.962 336.95 224.697 336.594 224.341C336.242 223.989 335.987 223.551 335.888 223.064C335.645 221.864 334.989 220.741 334.053 220.009C333.254 219.383 332.244 219.051 331.125 219.238C329.917 219.44 328.766 220.215 327.973 221.128C327.708 221.434 327.5 221.781 327.291 222.126C326.901 222.771 326.521 223.37 325.983 223.844C325.778 224.024 325.471 224.149 325.173 224.149C325.052 224.149 324.929 224.129 324.812 224.093C323.609 222.886 323.378 221.97 323.417 221.062C323.457 220.11 323.833 219.145 324.439 218.246C325.863 216.135 328.565 214.405 330.388 214.013C332.885 213.476 335.365 214.121 337.353 215.516C339.399 216.951 340.915 219.179 341.388 221.69C341.501 222.295 341.453 222.948 341.223 223.514C340.998 224.067 340.606 224.541 340.03 224.841ZM289.981 198.444C288.482 199.904 286.708 200.13 284.914 200.331C283.917 200.444 283.121 200.535 282.338 200.712C280.185 201.198 278.057 201.93 276.116 202.984C274.086 204.086 271.875 205.415 270.284 207.118C269.906 207.523 269.549 207.948 269.192 208.374C268.866 208.762 268.552 209.136 268.222 209.497C267.842 209.911 267.481 210.345 267.123 210.778C266.901 211.144 266.857 211.234 266.813 211.327C266.745 211.468 266.667 211.625 266.578 211.794C266.456 212.025 266.312 212.278 266.162 212.507C265.913 212.926 265.779 213.042 265.663 213.094C265.471 213.179 265.289 213.221 265.112 213.198C264.947 213.177 264.791 213.098 264.637 212.967C263.867 212.317 263.64 211.25 263.664 210.118C263.699 208.399 264.333 206.496 264.917 205.327C266.276 202.609 268.16 199.783 270.425 197.755C273.011 195.439 275.839 193.686 279.088 192.478C281.106 191.728 283.444 191.038 285.643 191.125C287.227 191.188 288.738 191.659 289.986 192.834C290.753 193.556 291.12 194.582 291.12 195.607C291.12 196.653 290.738 197.706 289.981 198.444ZM343.077 211.815C342.982 211.972 342.85 212.079 342.703 212.144C342.55 212.212 342.378 212.231 342.213 212.203C342.049 212.176 341.893 212.101 341.769 211.988C341.651 211.879 341.56 211.734 341.52 211.557C340.525 207.187 338.593 203.935 334.47 201.839C332.441 200.807 330.109 200.152 327.901 199.629C327.259 199.477 326.581 199.379 325.898 199.279C323.758 198.967 321.603 198.609 320.208 196.879C319.367 195.837 319.015 194.504 319.214 193.286C319.402 192.138 320.072 191.086 321.291 190.455C324.326 188.886 328.096 190.426 331.161 191.738C331.388 191.835 331.611 191.93 331.829 192.022C334.826 193.287 337.559 194.957 339.806 197.345C341.588 199.24 343.24 202.04 343.905 204.921C344.458 207.318 344.328 209.765 343.077 211.815Z" fill="black"/>
</svg>
