<svg width="88" height="88" viewBox="0 0 88 88" fill="none" xmlns="http://www.w3.org/2000/svg">
<path d="M44.0001 0.800049C20.1411 0.800049 0.800049 20.1411 0.800049 44.0001C0.800049 67.8591 20.1411 87.2001 44.0001 87.2001C67.8591 87.2001 87.2001 67.8591 87.2001 44.0001C87.2001 20.1411 67.8591 0.800049 44.0001 0.800049ZM27.0395 30.5H60.8796C62.6751 30.5 61.7481 32.804 60.7716 33.3935C59.7951 33.9785 46.2816 42.155 45.7731 42.4565C45.2646 42.758 44.6166 42.9066 43.9596 42.9066C43.3273 42.9195 42.703 42.7642 42.1505 42.4565L27.1475 33.3935C26.171 32.804 25.2485 30.5 27.0395 30.5ZM62.0001 55.2501C62.0001 56.1951 60.866 57.5001 60.002 57.5001H27.998C27.134 57.5001 26 56.1951 26 55.2501V38.8385C26 38.4245 25.991 37.8891 26.774 38.3436L42.1505 47.4111C42.6932 47.7428 43.3247 47.8999 43.9596 47.861C44.6166 47.861 45.0936 47.8116 45.7731 47.4111L61.2261 38.3481C62.0091 37.8891 62.0001 38.4291 62.0001 38.8431V55.2501Z" fill="black"/>
</svg>
